<?xml version="1.0" encoding="UTF-8" standalone="no"?>
<!-- Created with Inkscape (http://www.inkscape.org/) -->

<svg
   width="149mm"
   height="19mm"
   viewBox="0 0 149 19"
   version="1.1"
   id="svg5"
   xml:space="preserve"
   inkscape:version="1.2.2 (b0a84865, 2022-12-01)"
   sodipodi:docname="fish_header.svg"
   xmlns:inkscape="http://www.inkscape.org/namespaces/inkscape"
   xmlns:sodipodi="http://sodipodi.sourceforge.net/DTD/sodipodi-0.dtd"
   xmlns="http://www.w3.org/2000/svg"
   xmlns:svg="http://www.w3.org/2000/svg"><sodipodi:namedview
     id="namedview7"
     pagecolor="#ffffff"
     bordercolor="#000000"
     borderopacity="0.25"
     inkscape:showpageshadow="2"
     inkscape:pageopacity="0.0"
     inkscape:pagecheckerboard="0"
     inkscape:deskcolor="#d1d1d1"
     inkscape:document-units="px"
     showgrid="false"
     showborder="false"
     inkscape:zoom="0.57281846"
     inkscape:cx="404.142"
     inkscape:cy="130.05866"
     inkscape:window-width="1390"
     inkscape:window-height="793"
     inkscape:window-x="0"
     inkscape:window-y="25"
     inkscape:window-maximized="0"
     inkscape:current-layer="layer2" /><defs
     id="defs2" /><g
     inkscape:groupmode="layer"
     id="layer2"
     inkscape:label="Layer 2"><path
       id="path281"
       style="fill:#222222;fill-opacity:1;stroke-width:0.264583"
       d="m -0.3121871,-0.44799258 v 0.69298 c 0,0 6.7112372,3.78549008 13.5898681,5.37125008 6.962266,1.60502 10.890809,1.90376 10.890809,1.90376 0,0 11.778475,6.2355105 17.667656,6.1200405 l -1.039214,-3.57963 c 0,0 14.318863,2.4248 25.288895,1.84743 0,0 17.292236,8.747249 20.150196,6.610969 0,0 0.83692,-1.18376 -0.11575,-2.39624 l -3.406,-4.791949 c 0,0 10.10357,-1.32808 11.92227,-3.03134 l 12.673647,5.68699 c 0,0 3.69494,2.078469 7.96747,-10.8546405 l -2.42466,-1.38544 c 0,0 6.46648,-3.23312 18.01389,3.46439 11.54741,6.6974905 16.28163,6.2354605 18.59112,5.8890405 V -0.44799258 Z" /></g></svg>
